<svg xmlns="http://www.w3.org/2000/svg" viewBox="0 0 101 18">
  <defs>
    <linearGradient id="b" x1="0" y1="6.2" x2="8.4" y2="12.5" gradientUnits="userSpaceOnUse">
      <stop offset="0" stop-color="#FF8F15"/>
      <stop offset="1" stop-color="#FFA618"/>
    </linearGradient>
    <linearGradient id="c" x1="0" y1="6.2" x2="8.4" y2="12.5" gradientUnits="userSpaceOnUse">
      <stop offset="0" stop-color="#FF8F15"/>
      <stop offset="1" stop-color="#FFA618"/>
    </linearGradient>
    <linearGradient id="d" x1="8.5" y1="6.2" x2="16.7" y2="12.5" gradientUnits="userSpaceOnUse">
      <stop offset="0" stop-color="#FFA618"/>
      <stop offset="1" stop-color="#FFA618"/>
    </linearGradient>
  </defs>
  <path fill="#00112A" d="M95.727 6.407a4.795 4.795 0 0 0-4.793 4.793v1.958a4.795 4.795 0 0 0 4.793 4.793 4.795 4.795 0 0 0 4.793-4.793V11.2a4.795 4.795 0 0 0-4.793-4.793Zm3.087 6.75a3.088 3.088 0 0 1-6.175 0V11.2a3.088 3.088 0 1 1 6.175 0v1.958Zm-58.947-6.75c-2.611.077-4.653 2.28-4.653 4.891v1.86a4.795 4.795 0 0 0 4.793 4.793h.631c1.292 0 2.527-.52 3.432-1.446l.358-.365a.345.345 0 0 0-.007-.49l-.73-.703a.345.345 0 0 0-.491.007l-.358.365a3.044 3.044 0 0 1-2.21.934H40a3.088 3.088 0 0 1-3.088-3.088v-.042h7.537c.19 0 .344-.155.344-.344v-1.572a4.791 4.791 0 0 0-4.926-4.8Zm3.228 5.004h-6.176V11.2a3.088 3.088 0 0 1 6.176 0v.21ZM32.758 3.172h-1.025a.344.344 0 0 0-.344.344v11.017l-8.947-11.27a.261.261 0 0 0-.197-.091h-.8a.344.344 0 0 0-.343.344v14.07c0 .19.154.344.343.344h1.025c.19 0 .344-.155.344-.344V6.512l8.94 11.326a.26.26 0 0 0 .197.092h.8c.19 0 .343-.155.343-.344V3.516a.334.334 0 0 0-.336-.344Zm37.944 3.34h-2.365V4.295a.344.344 0 0 0-.344-.344h-1.018a.344.344 0 0 0-.343.344v2.217h-1.116a.344.344 0 0 0-.344.344v1.017c0 .19.154.344.344.344h1.115v6.751a2.929 2.929 0 0 0 2.927 2.927h1.144c.19 0 .344-.155.344-.344v-1.018a.344.344 0 0 0-.344-.344h-1.144a1.222 1.222 0 0 1-1.221-1.22V8.216h2.365c.19 0 .344-.154.344-.344V6.856a.344.344 0 0 0-.344-.344Zm-19.271 0h-2.365V4.295a.344.344 0 0 0-.344-.344h-1.017a.344.344 0 0 0-.344.344v2.217h-1.116a.344.344 0 0 0-.344.344v1.017c0 .19.155.344.344.344h1.116v6.751a2.929 2.929 0 0 0 2.926 2.927h1.144c.19 0 .344-.155.344-.344v-1.018a.344.344 0 0 0-.344-.344h-1.144a1.222 1.222 0 0 1-1.22-1.22V8.216h2.364c.19 0 .344-.154.344-.344V6.856a.344.344 0 0 0-.344-.344Zm33.214-.105c-1.403-.028-2.652.66-3.445 1.72a4.249 4.249 0 0 0-3.41-1.72 4.24 4.24 0 0 0-2.534.842v-.393a.344.344 0 0 0-.344-.344h-1.017a.344.344 0 0 0-.344.344v10.688c0 .19.154.344.344.344h1.017c.19 0 .344-.155.344-.344v-6.898a2.537 2.537 0 0 1 2.632-2.534c1.375.05 2.442 1.221 2.442 2.597v6.835c0 .19.154.344.344.344h1.017c.19 0 .344-.155.344-.344v-6.898a2.537 2.537 0 0 1 2.632-2.534c1.375.05 2.442 1.221 2.442 2.597v6.835c0 .19.154.344.344.344h1.017c.19 0 .344-.155.344-.344v-6.898a4.257 4.257 0 0 0-4.168-4.239Zm-25.628 0h-.463c-1.291 0-2.526.52-3.431 1.446l-.358.365a.345.345 0 0 0 .007.49l.73.71a.345.345 0 0 0 .49-.008l.359-.364a3.045 3.045 0 0 1 2.21-.934h.463c1.51 0 2.478.765 2.478 1.944v.828h-3.986c-1.93 0-3.888 1.193-3.888 3.474 0 2.47 2.014 3.593 3.888 3.593 1.593 0 2.982-.702 3.986-1.607v1.2c0 .19.154.344.343.344h1.018c.19 0 .344-.155.344-.344v-7.495c-.007-1.747-1.312-3.642-4.19-3.642Zm-1.508 9.839c-2.028 0-2.183-1.446-2.183-1.888 0-.66.463-1.769 2.183-1.769h3.986v.814c-.021.569-1.6 2.843-3.986 2.843Z"/>
  <path fill="#FFA618" d="M16.681 6.646c0-.035 0-.07-.007-.106a.353.353 0 0 0-.014-.084v-.014a.66.66 0 0 0-.07-.196l-8.225 6.301.59.457 6.154 4.715a.973.973 0 0 0 1.565-.772l.007-10.301Z"/>
  <path fill="url(#b)" d="M.14 6.239c-.028.063-.05.133-.07.196v.021a.352.352 0 0 0-.014.084c-.007.035-.007.07-.007.106v10.301a.973.973 0 0 0 1.565.772l4.512-3.466 2.232-1.72L.14 6.24Z"/>
  <path fill="url(#c)" d="M.14 6.239c-.028.063-.05.133-.07.196v.021a.352.352 0 0 0-.014.084c-.007.035-.007.07-.007.106v10.301a.973.973 0 0 0 1.565.772l3.944-3.031 2.8-2.155L.14 6.24Z" opacity=".5"/>
  <path fill="url(#d)" d="M16.681 6.639c0-.035 0-.07-.007-.099a.353.353 0 0 0-.014-.084v-.014a.66.66 0 0 0-.07-.196l-8.225 6.301.59.457 6.154 4.715a.973.973 0 0 0 1.565-.772V6.646c.007 0 .007 0 .007-.007Z"/>
  <path fill="#FF8F15" d="M16.589 6.238a1.131 1.131 0 0 0-.12-.196v-.007a.7.7 0 0 0-.07-.077c-.007-.007-.007-.007-.007-.014a.487.487 0 0 0-.09-.077L8.953.252a.98.98 0 0 0-1.186 0L7.74.274l-7.313 5.6a.842.842 0 0 0-.084.077l-.014.014a.768.768 0 0 0-.07.077s0 .007-.007.007c-.042.056-.077.12-.112.19l8.224 6.301 8.225-6.302Z"/>
</svg>
