<?xml version="1.0" encoding="UTF-8"?>
<svg id="Calque_1" data-name="Calque 1" xmlns="http://www.w3.org/2000/svg" viewBox="0 0 688.43 283.44">
  <defs>
    <style>
      .cls-1 {
        fill: #010101;
      }

      .cls-2 {
        fill: #FF1910;
      }
    </style>
  </defs>
  <path class="cls-2" d="M299.39,4.17s-10.9-4.17-25.65-4.17c-26.73,0-40.79,14.59-47.62,23.98-6.46,8.88-10.53,18.13-13.59,30.92-2.93,12.23-3.41,27.52-3.92,39.72-1.27,30.63,1.6,84.53-11.61,84.53-6.78,0-11.42-10.43-12.99-14.44-.64-1.63-5.8-16.63-12.19-44.98-3.97-17.66-13.42-60.21-16.16-69.78-1.26-4.41-4.47-16.1-10.69-26.24-8.16-13.29-22.06-19.99-34.13-19.99s-22.55,8.08-26.52,11.99c-12.11,11.93-16.07,29.34-17.34,36.26-1.38,7.47-3.07,23.07-3.07,23.07-2.43,18.6-6.49,50.83-7.41,57.59-4.74,34.76-14.64,40.37-24.17,43.47-2.24,.73-6.53,1.06-8.01,1.06-6.21,0-11.12-1.8-11.12-1.8-.67-.27-1.92-.76-3.38-.76-.85,0-1.66,.16-2.41,.49-2.01,.88-2.92,2.08-3.23,2.64-3.88,5.97-4.18,12.37-4.18,14.19,0,4.39,2.68,5.86,3.48,6.2,.24,.1,5.74,2.45,13.86,3.7,24.37,3.78,39.62-10.57,43.75-14.59,3.88-3.79,10.59-11.59,15-26.83,2.82-9.72,4.46-19.26,5.71-29.85,.94-7.99,7.07-60.91,8.32-68.32,1.32-7.8,3.32-15.89,7.18-23.3,2.72-5.23,7.38-10.83,14.27-10.83,2.65,0,5.08,.8,7.22,2.4,6.6,4.89,10.55,16.44,11.85,21.43,1.76,6.71,14.36,59.7,16.36,68.93,13.42,62.13,22.46,72.9,34.97,79.13,7.16,3.56,21.22,7.53,33.98-2.54,14.31-11.28,14.69-33.32,15.66-46.69,1-13.78,1.04-24.81,1.11-29.76,.68-49.2,1.09-64.35,14.22-83.33,7.07-10.21,21.57-17.43,45.6-9.99,.59,.19,1.88,.5,2.95,.5,4.66,0,6.6-4.73,7.81-9.44,.82-3.18,3.08-12.33-3.92-14.6"/>
  <g>
    <path class="cls-1" d="M277.38,163.13c0,7.77,1.33,12.88,3.79,16.29,3.22,4.17,8.15,6.44,14.58,6.44,7.2,0,14.02-2.08,20.47-4.92,1.32-.57,2.65-.95,3.97-.95,4.74,0,9.28,3.98,9.28,8.9,0,3.61-1.51,6.82-4.92,8.53-9.1,4.35-18.75,6.44-28.8,6.44-10.98,0-20.45-3.6-27.46-10.61-6.82-6.82-10.42-16.29-10.42-27.46v-23.87c0-10.99,3.6-20.46,10.42-27.28,7.01-7.01,16.48-10.61,27.46-10.61s20.65,3.6,27.47,10.61c6.82,6.82,10.6,16.29,10.6,27.28v8.9c0,6.82-5.49,12.32-12.31,12.32h-44.13Zm36.94-18c0-15.72-6.44-23.11-18.57-23.11s-18.37,7.19-18.37,23.11h36.94Z"/>
    <path class="cls-1" d="M383.22,170.14l-20.08,29.55c-1.9,2.66-4.92,4.17-7.96,4.17-5.11,0-9.85-4.35-9.85-9.85,0-1.89,.58-3.78,1.71-5.49l24.82-35.05-24.25-34.09c-1.14-1.71-1.7-3.6-1.7-5.5,0-5.11,4.35-9.84,9.85-9.84,3.03,0,6.06,1.51,7.95,4.16l19.51,28.6,19.51-28.6c1.89-2.84,5.11-4.16,8.15-4.16,5.3,0,9.66,4.35,9.66,9.84,0,1.9-.58,3.79-1.71,5.5l-24.24,34.09,24.81,35.05c1.33,1.71,1.9,3.6,1.9,5.49,0,5.3-4.55,9.85-10.04,9.85-3.03,0-6.06-1.32-7.95-4.17l-20.09-29.55Z"/>
    <path class="cls-1" d="M507.05,187.38c0,5.3-3.41,9.85-8.33,11.56-9.29,3.22-20.09,4.92-30.69,4.92-11.56,0-20.65-2.84-27.09-8.33-6.44-5.5-9.85-13.26-9.85-22.54s3.41-16.48,9.85-21.78c6.44-5.49,15.53-8.34,27.09-8.34h19.51v-6.63c0-7.95-5.87-14.21-15.72-14.21-8.9,0-13.82,1.14-20.46,5.11-1.52,.95-3.6,1.7-5.3,1.7-5.11,0-9.28-3.79-9.28-8.53,0-3.41,1.51-6.81,4.73-8.71,10.23-5.88,19.13-7.58,32.77-7.58,21.22,0,32.77,15.35,32.77,32.21v51.14Zm-19.51-26.52h-19.51c-16.48,0-17.43,8.91-17.43,12.13,0,3.41,.95,12.88,17.43,12.88,6.44,0,13.45-.95,19.51-2.46v-22.55Z"/>
    <path class="cls-1" d="M585.24,140.4c0-11.55-6.82-18.37-18.56-18.37-6.25,0-12.5,.94-18.37,2.46v69.52c0,5.5-4.36,9.85-9.66,9.85s-9.85-4.35-9.85-9.85V120.52c0-5.31,3.22-9.85,8.33-11.56,9.29-3.21,19.32-4.92,29.55-4.92,11.18,0,20.65,3.6,27.47,10.61,6.82,6.82,10.6,16.29,10.6,27.28v52.09c0,5.5-4.36,9.85-9.85,9.85s-9.66-4.35-9.66-9.85v-53.61Z"/>
    <path class="cls-1" d="M640.69,158.59c-10.23-3.79-18.19-11.75-18.19-25.95,0-16.67,13.83-28.61,32.77-28.61,12.88,0,19.51,1.9,25.76,4.74,3.79,1.52,6.25,4.92,6.25,8.91,0,4.92-3.98,9.09-9.09,9.09-1.33,0-3.22-.38-4.55-.95-4.73-2.27-12.5-3.79-18.75-3.79-7.77,0-12.88,3.79-12.88,10.23,0,4.92,3.78,7.95,7.76,9.28l18.57,6.07c12.5,4.16,20.08,12.69,20.08,26.51,0,16.67-13.45,29.74-33.72,29.74-11.18,0-20.27-2.08-27.28-5.3-3.59-1.71-5.87-4.93-5.87-8.72,0-4.92,4.17-9.47,9.47-9.47,1.33,0,3.03,.57,4.36,1.14,5.12,2.65,11.37,4.35,19.7,4.35,9.1,0,13.83-3.41,13.83-9.85,0-7.01-5.68-9.28-12.69-11.74l-15.53-5.68Z"/>
  </g>
  <g>
    <path class="cls-1" d="M116.18,282.87c-.99,0-1.86-.35-2.59-1.05-.74-.71-1.11-1.57-1.11-2.6v-32.66c0-.99,.36-1.84,1.08-2.57,.72-.72,1.6-1.08,2.62-1.08h16.54c.83,0,1.53,.28,2.11,.85,.57,.57,.85,1.28,.85,2.11s-.28,1.47-.85,2c-.58,.53-1.28,.8-2.11,.8h-14.2v10.61h13.46c.84,0,1.54,.27,2.11,.83,.57,.55,.86,1.24,.86,2.08,0,.8-.29,1.47-.86,2.02-.57,.55-1.27,.83-2.11,.83h-13.46v12.09h14.6c.8,0,1.49,.27,2.08,.82,.59,.55,.88,1.23,.88,2.02,0,.84-.29,1.53-.88,2.08-.59,.55-1.29,.83-2.08,.83h-16.93Z"/>
    <path class="cls-1" d="M146.68,282.87c-1.03,0-1.9-.37-2.62-1.11-.72-.74-1.08-1.6-1.08-2.59v-33.81c0-.84,.3-1.54,.91-2.14,.61-.59,1.31-.89,2.11-.89s1.54,.31,2.14,.92c.58,.61,.88,1.33,.88,2.16v31.7h14.6c.84,0,1.54,.27,2.11,.82,.57,.55,.86,1.23,.86,2.02,0,.84-.28,1.53-.83,2.08-.55,.55-1.25,.83-2.09,.83h-16.98Z"/>
    <path class="cls-1" d="M176.15,282.87c-.99,0-1.86-.35-2.59-1.05-.74-.71-1.11-1.57-1.11-2.6v-32.66c0-.99,.36-1.84,1.08-2.57,.72-.72,1.6-1.08,2.62-1.08h16.54c.83,0,1.53,.28,2.11,.85,.57,.57,.85,1.28,.85,2.11s-.28,1.47-.85,2c-.58,.53-1.28,.8-2.11,.8h-14.2v10.61h13.46c.83,0,1.54,.27,2.11,.83,.57,.55,.86,1.24,.86,2.08,0,.8-.29,1.47-.86,2.02-.57,.55-1.28,.83-2.11,.83h-13.46v12.09h14.6c.8,0,1.49,.27,2.08,.82,.59,.55,.88,1.23,.88,2.02,0,.84-.29,1.53-.88,2.08-.59,.55-1.29,.83-2.08,.83h-16.93Z"/>
    <path class="cls-1" d="M201.92,257.1c0-2.21,.35-4.22,1.05-6.05,.71-1.82,1.7-3.38,2.99-4.67,1.29-1.29,2.84-2.29,4.65-2.99,1.8-.7,3.8-1.06,6.01-1.06,3.09,0,6.01,.9,8.79,2.68,.91,.62,1.37,1.43,1.37,2.46,0,.76-.29,1.42-.85,1.96-.58,.56-1.28,.83-2.11,.83-.49,0-1-.16-1.54-.46-.91-.57-1.84-1.02-2.76-1.37-.93-.34-1.89-.51-2.88-.51-2.77,0-4.91,.83-6.41,2.5-1.5,1.67-2.25,3.9-2.25,6.67v11.57c0,2.78,.75,5,2.25,6.67,1.5,1.68,3.64,2.51,6.41,2.51,.99,0,1.94-.18,2.86-.54,.91-.36,1.82-.83,2.74-1.4,.49-.34,1.05-.51,1.65-.51,.76,0,1.43,.27,2.03,.8,.59,.53,.88,1.22,.88,2.06,0,1.06-.46,1.9-1.37,2.5-2.77,1.79-5.7,2.68-8.79,2.68-2.21,0-4.21-.35-6.01-1.05-1.81-.7-3.36-1.7-4.65-2.99-1.3-1.3-2.29-2.85-2.99-4.67-.7-1.83-1.05-3.84-1.05-6.05v-11.57Z"/>
    <path class="cls-1" d="M241.15,248.66h-8.44c-.83,0-1.52-.28-2.07-.83-.56-.55-.83-1.22-.83-2.03s.28-1.52,.83-2.08c.55-.55,1.24-.82,2.07-.82h22.86c.84,0,1.54,.27,2.11,.82,.57,.55,.85,1.25,.85,2.08s-.29,1.48-.85,2.03c-.57,.55-1.28,.83-2.11,.83h-8.38v31.76c0,.83-.3,1.55-.89,2.14-.59,.59-1.3,.88-2.14,.88s-1.55-.3-2.14-.88-.88-1.3-.88-2.14v-31.76Z"/>
    <path class="cls-1" d="M275.07,266.11h-5.13v14.37c0,.84-.3,1.54-.91,2.11-.62,.57-1.32,.86-2.11,.86-.84,0-1.55-.29-2.14-.86-.59-.57-.88-1.27-.88-2.11v-33.92c0-.99,.36-1.85,1.08-2.57,.73-.73,1.6-1.09,2.62-1.09h10.61c3.46,0,6.26,1.06,8.38,3.19,2.21,2.21,3.31,5.06,3.31,8.56s-1.08,6.29-3.25,8.38c-1.33,1.26-2.98,2.15-4.96,2.68l7.92,13.29c.3,.49,.45,1,.45,1.53,0,.76-.29,1.43-.88,2.03-.6,.59-1.29,.88-2.09,.88-.53,0-1.01-.13-1.45-.37-.44-.25-.79-.6-1.05-1.06l-9.53-15.91Zm3.14-5.75c.65,0,1.3-.08,1.97-.23,.66-.15,1.27-.44,1.82-.88,.55-.44,1-1.03,1.34-1.77,.34-.74,.51-1.68,.51-2.82,0-1.72-.49-3.14-1.46-4.28-.97-1.14-2.36-1.71-4.19-1.71h-8.26v11.69h8.26Z"/>
    <path class="cls-1" d="M296.67,245.36c0-.83,.29-1.55,.88-2.14,.59-.59,1.3-.88,2.14-.88s1.5,.29,2.11,.88c.61,.59,.91,1.31,.91,2.14v35.06c0,.83-.3,1.55-.91,2.14-.62,.59-1.32,.88-2.11,.88s-1.55-.29-2.14-.88c-.59-.59-.88-1.3-.88-2.14v-35.06Z"/>
    <path class="cls-1" d="M317.71,265.03v15.45c0,.83-.29,1.54-.88,2.11-.59,.57-1.28,.86-2.08,.86-.83,0-1.56-.28-2.17-.86-.61-.57-.91-1.28-.91-2.11v-33.92c0-.99,.36-1.84,1.09-2.57,.72-.72,1.59-1.08,2.62-1.08h16.36c.84,0,1.54,.28,2.11,.82,.57,.56,.85,1.25,.85,2.09s-.28,1.47-.85,2.03c-.57,.55-1.28,.83-2.11,.83h-14.02v10.6h13.28c.83,0,1.54,.27,2.11,.83,.57,.55,.85,1.25,.85,2.08s-.28,1.48-.85,2.03c-.58,.55-1.28,.83-2.11,.83h-13.28Z"/>
    <path class="cls-1" d="M348.61,265.37l-11-18.58c-.26-.42-.4-.91-.4-1.49,0-.76,.28-1.44,.82-2.05,.56-.61,1.25-.91,2.09-.91,.53,0,1.02,.12,1.49,.37,.45,.25,.82,.59,1.08,1.05l8.89,15.62,8.9-15.62c.27-.46,.63-.81,1.08-1.05,.46-.25,.95-.37,1.48-.37,.76,0,1.44,.28,2.02,.85,.6,.57,.89,1.27,.89,2.11,0,.57-.14,1.06-.4,1.49l-11,18.58v15.1c0,.84-.29,1.54-.85,2.11-.57,.58-1.28,.85-2.11,.85s-1.54-.28-2.1-.85c-.57-.57-.86-1.28-.86-2.11v-15.1Z"/>
    <path class="cls-1" d="M394.73,248.66h-8.44c-.83,0-1.53-.28-2.07-.83-.56-.55-.83-1.22-.83-2.03s.28-1.52,.83-2.08c.55-.55,1.24-.82,2.07-.82h22.86c.84,0,1.54,.27,2.11,.82,.57,.55,.85,1.25,.85,2.08s-.29,1.48-.85,2.03c-.57,.55-1.28,.83-2.11,.83h-8.38v31.76c0,.83-.3,1.55-.89,2.14-.59,.59-1.3,.88-2.14,.88s-1.55-.3-2.14-.88c-.59-.59-.88-1.3-.88-2.14v-31.76Z"/>
    <path class="cls-1" d="M438.34,265.03h-14.82v15.4c0,.83-.3,1.54-.88,2.14-.6,.59-1.28,.88-2.09,.88s-1.55-.3-2.16-.88c-.61-.59-.91-1.3-.91-2.14v-35.07c0-.83,.3-1.54,.88-2.14,.59-.59,1.31-.88,2.14-.88s1.5,.3,2.11,.88c.61,.6,.91,1.3,.91,2.14v13.92h14.82v-13.92c0-.83,.29-1.54,.88-2.14,.59-.59,1.3-.88,2.14-.88s1.55,.3,2.14,.88c.59,.6,.89,1.3,.89,2.14v35.07c0,.83-.29,1.54-.86,2.14-.57,.59-1.27,.88-2.11,.88s-1.56-.3-2.17-.88c-.61-.59-.91-1.3-.91-2.14v-15.4Z"/>
    <path class="cls-1" d="M457.04,282.87c-.99,0-1.86-.35-2.59-1.05-.74-.71-1.11-1.57-1.11-2.6v-32.66c0-.99,.36-1.84,1.08-2.57,.72-.72,1.6-1.08,2.62-1.08h16.54c.83,0,1.53,.28,2.11,.85,.57,.57,.85,1.28,.85,2.11s-.28,1.47-.85,2c-.58,.53-1.28,.8-2.11,.8h-14.19v10.61h13.45c.83,0,1.54,.27,2.11,.83,.57,.55,.86,1.24,.86,2.08,0,.8-.29,1.47-.86,2.02-.57,.55-1.28,.83-2.11,.83h-13.45v12.09h14.59c.8,0,1.49,.27,2.08,.82,.59,.55,.89,1.23,.89,2.02,0,.84-.3,1.53-.89,2.08-.59,.55-1.28,.83-2.08,.83h-16.93Z"/>
    <path class="cls-1" d="M505.33,265.03v15.45c0,.83-.29,1.54-.88,2.11-.59,.57-1.28,.86-2.08,.86-.84,0-1.57-.28-2.17-.86-.61-.57-.91-1.28-.91-2.11v-33.92c0-.99,.36-1.84,1.09-2.57,.72-.72,1.59-1.08,2.61-1.08h16.37c.84,0,1.54,.28,2.11,.82,.57,.56,.85,1.25,.85,2.09s-.28,1.47-.85,2.03c-.57,.55-1.27,.83-2.11,.83h-14.02v10.6h13.28c.83,0,1.53,.27,2.11,.83,.57,.55,.85,1.25,.85,2.08s-.29,1.48-.85,2.03c-.58,.55-1.28,.83-2.11,.83h-13.28Z"/>
    <path class="cls-1" d="M550.03,245.36c0-.83,.29-1.55,.88-2.14,.59-.59,1.3-.88,2.14-.88s1.51,.29,2.11,.88c.61,.59,.91,1.31,.91,2.14v23.89c0,2.13-.35,4.07-1.03,5.81-.69,1.75-1.65,3.24-2.88,4.48-1.24,1.24-2.73,2.2-4.48,2.88-1.75,.69-3.69,1.03-5.81,1.03s-4.07-.34-5.82-1.03c-1.75-.68-3.25-1.64-4.48-2.88-1.24-1.24-2.19-2.73-2.88-4.48-.68-1.75-1.02-3.68-1.02-5.81v-23.89c0-.83,.3-1.55,.91-2.14,.61-.59,1.33-.88,2.16-.88s1.5,.29,2.09,.88c.59,.59,.88,1.31,.88,2.14v24.23c0,2.61,.7,4.65,2.11,6.1,1.4,1.44,3.42,2.17,6.05,2.17s4.63-.72,6.04-2.17c1.41-1.44,2.11-3.48,2.11-6.1v-24.23Z"/>
    <path class="cls-1" d="M572.26,248.66h-8.44c-.83,0-1.52-.28-2.07-.83-.56-.55-.83-1.22-.83-2.03s.28-1.52,.83-2.08c.55-.55,1.24-.82,2.07-.82h22.86c.84,0,1.54,.27,2.11,.82,.57,.55,.85,1.25,.85,2.08s-.29,1.48-.85,2.03c-.57,.55-1.28,.83-2.11,.83h-8.38v31.76c0,.83-.3,1.55-.89,2.14-.59,.59-1.3,.88-2.14,.88s-1.55-.3-2.14-.88c-.59-.59-.88-1.3-.88-2.14v-31.76Z"/>
    <path class="cls-1" d="M616.85,245.36c0-.83,.29-1.55,.88-2.14,.59-.59,1.3-.88,2.14-.88s1.51,.29,2.11,.88c.61,.59,.91,1.31,.91,2.14v23.89c0,2.13-.35,4.07-1.03,5.81-.69,1.75-1.65,3.24-2.88,4.48-1.24,1.24-2.73,2.2-4.48,2.88-1.75,.69-3.69,1.03-5.81,1.03s-4.07-.34-5.82-1.03c-1.75-.68-3.25-1.64-4.48-2.88-1.24-1.24-2.19-2.73-2.88-4.48-.68-1.75-1.02-3.68-1.02-5.81v-23.89c0-.83,.3-1.55,.91-2.14,.61-.59,1.33-.88,2.16-.88s1.5,.29,2.09,.88c.59,.59,.88,1.31,.88,2.14v24.23c0,2.61,.7,4.65,2.11,6.1,1.4,1.44,3.42,2.17,6.05,2.17s4.63-.72,6.04-2.17c1.41-1.44,2.11-3.48,2.11-6.1v-24.23Z"/>
    <path class="cls-1" d="M642.5,266.11h-5.13v14.37c0,.84-.31,1.54-.92,2.11-.61,.57-1.31,.86-2.1,.86-.84,0-1.55-.29-2.14-.86-.59-.57-.88-1.27-.88-2.11v-33.92c0-.99,.36-1.85,1.09-2.57,.72-.73,1.59-1.09,2.61-1.09h10.61c3.46,0,6.26,1.06,8.38,3.19,2.21,2.21,3.31,5.06,3.31,8.56s-1.08,6.29-3.25,8.38c-1.34,1.26-2.99,2.15-4.97,2.68l7.93,13.29c.3,.49,.45,1,.45,1.53,0,.76-.29,1.43-.88,2.03-.6,.59-1.28,.88-2.09,.88-.53,0-1.01-.13-1.45-.37-.44-.25-.79-.6-1.06-1.06l-9.52-15.91Zm3.14-5.75c.65,0,1.3-.08,1.96-.23,.67-.15,1.28-.44,1.83-.88s1-1.03,1.34-1.77c.34-.74,.51-1.68,.51-2.82,0-1.72-.49-3.14-1.46-4.28-.97-1.14-2.37-1.71-4.19-1.71h-8.26v11.69h8.26Z"/>
    <path class="cls-1" d="M667.81,282.87c-.99,0-1.86-.35-2.59-1.05-.74-.71-1.11-1.57-1.11-2.6v-32.66c0-.99,.36-1.84,1.08-2.57,.72-.72,1.6-1.08,2.62-1.08h16.54c.83,0,1.53,.28,2.1,.85,.58,.57,.86,1.28,.86,2.11s-.28,1.47-.86,2c-.57,.53-1.27,.8-2.1,.8h-14.19v10.61h13.45c.83,0,1.54,.27,2.11,.83,.57,.55,.86,1.24,.86,2.08,0,.8-.29,1.47-.86,2.02-.57,.55-1.28,.83-2.11,.83h-13.45v12.09h14.59c.8,0,1.49,.27,2.08,.82,.6,.55,.89,1.23,.89,2.02,0,.84-.3,1.53-.89,2.08-.59,.55-1.28,.83-2.08,.83h-16.93Z"/>
  </g>
</svg>