<svg xmlns="http://www.w3.org/2000/svg" xmlns:xlink="http://www.w3.org/1999/xlink" xml:space="preserve" width="130" height="68"><path fill="#E20613" d="M129.997 45.996c0 2.722-2.49 4.928-5.563 4.928H5.564C2.491 50.924 0 48.718 0 45.996V4.947C0 2.226 2.491.022 5.564.022h118.87c3.073 0 5.563 2.205 5.563 4.925z"/><path fill="#FFF" d="M111.266 18.613c-3.793.383-7.486 2.775-7.883 6.822-.196 2.017.238 4.145 1.688 5.63 1.354 1.383 3.244 2.106 5.057 2.673 1.107.345 2.253.575 3.33 1.012.8.324 2.283 1.03 1.056 1.894-.808.567-2.43.401-3.354.286-1.166-.146-2.297-.516-3.348-1.036a15.77 15.77 0 0 1-2.51-1.585c-1.214-.918-1.396.098-1.71 1.202-.362 1.279-.744 2.552-1.086 3.835-.136.505-.628 1.509-.163 1.816.584.384 1.194.729 1.822 1.033 6.378 3.095 18.273 3.5 19.439-5.721.245-1.932-.224-3.9-1.568-5.348-1.553-1.674-3.802-2.51-5.945-3.123-1.125-.322-2.297-.582-3.328-1.163-1.314-.745-.391-1.369.706-1.475 2.316-.222 4.467.619 6.414 1.813 1.211.74 1.552-.789 1.899-1.874.447-1.389.867-2.692 1.213-4.114.062-.252-.185-.412-.185-.412-3.239-1.53-7.075-2.619-11.544-2.165m-67.954 8.065c2.283-.308 3.792.778 4.396 2.403.617 1.658.43 4.215-.432 5.47-.767 1.554-3.976 2.077-5.612.934-1.524-1.062-2.074-3.99-1.323-6.25.446-1.347 1.372-2.34 2.971-2.557M93.604 8.045c-.444.083-.855.275-1.228.446-2.072.945-3.375 4.327-2.035 6.905.995 1.919 3.789 3.379 6.534 2.306 2.178-.852 3.784-3.687 2.697-6.641-.778-2.114-2.884-3.593-5.968-3.016m-2.816 11.25c-.273.001-.584.283-.584.585l-.012 22.858c0 .321.347.536.596.536l8.068.004c.311 0 .632-.241.632-.517l.005-22.955c0-.308-.349-.511-.593-.512h-8.112zM4.464 9.133a.63.63 0 0 0-.491.292c-.125.2-.225.476-.08.703L15.29 27.872l.002 14.89c0 .311.35.513.591.513l8.848-.03c.219-.003.491-.22.492-.482l.008-14.897L36.2 10.763c.184-.284.578-.612.459-1.109-.072-.299-.355-.51-.591-.511l-10.386-.01a.591.591 0 0 0-.48.288c-1.643 3.151-3.244 6.339-4.946 9.499l-4.668-8.918c-.171-.337-.402-.86-.868-.863zm37.454 9.658c-1.389.131-2.593.543-3.708.997-5.27 2.143-9.207 9.073-6.58 16.265 2.115 5.789 9.357 9.853 17.174 7.275 5.207-2.165 9.302-6.54 8.338-14.243-1.335-6.85-6.561-11.111-15.224-10.294M61.181 7.22c-.253.001-.517.265-.517.518v35.024c0 .275.321.517.632.517l7.916.005c.291 0 .606-.314.606-.604l.002-8.271 7.216 8.512c.148.18.351.363.568.363h10.63c.309-.096.589-.351.604-.711a.617.617 0 0 0-.179-.418l-3.198-3.404c-2.477-2.635-5.002-5.24-7.435-7.904l9.822-10.537c.087-.094.107-.3.076-.399-.101-.315-.351-.614-.713-.615-3.369-.012-6.867-.027-10.183.011l-7.211 8.655-.009-20.152c0-.273-.282-.583-.585-.584z"/><defs><path id="a" d="M65.138 53.443h.313v14.699h-.313z"/></defs><clipPath id="b"><use xlink:href="#a" overflow="visible"/></clipPath><path fill="#FFF" d="M65.138 68.143h.313zm0-.027h.313v.026h-.313z" clip-path="url(#b)"/><path fill="#FDFDFD" d="M65.138 68.086h.313v.03h-.313z" clip-path="url(#b)"/><path fill="#FBFBFB" d="M65.138 68.058h.313v.028h-.313z" clip-path="url(#b)"/><path fill="#F9F9F9" d="M65.138 68.026h.313v.031h-.313z" clip-path="url(#b)"/><path fill="#F8F8F8" d="M65.138 68.001h.313v.025h-.313z" clip-path="url(#b)"/><path fill="#F6F6F6" d="M65.138 67.975h.313v.026h-.313z" clip-path="url(#b)"/><path fill="#F4F4F4" d="M65.138 67.943h.313v.031h-.313z" clip-path="url(#b)"/><path fill="#F3F3F3" d="M65.138 67.916h.313v.027h-.313z" clip-path="url(#b)"/><path fill="#F1F1F1" d="M65.138 67.885h.313v.031h-.313z" clip-path="url(#b)"/><path fill="#EFEFEF" d="M65.138 67.857h.313v.027h-.313z" clip-path="url(#b)"/><path fill="#EDEDED" d="M65.138 67.831h.313v.026h-.313z" clip-path="url(#b)"/><path fill="#ECECEC" d="M65.138 67.797h.313v.034h-.313z" clip-path="url(#b)"/><path fill="#EAEAEA" d="M65.138 67.771h.313v.025h-.313z" clip-path="url(#b)"/><path fill="#E8E8E8" d="M65.138 67.742h.313v.029h-.313z" clip-path="url(#b)"/><path fill="#E7E7E7" d="M65.138 67.714h.313v.028h-.313z" clip-path="url(#b)"/><path fill="#E5E5E5" d="M65.138 67.685h.313v.029h-.313z" clip-path="url(#b)"/><path fill="#E3E3E3" d="M65.138 67.656h.313v.028h-.313z" clip-path="url(#b)"/><path fill="#E2E2E2" d="M65.138 67.628h.313v.028h-.313z" clip-path="url(#b)"/><path fill="#E0E0E0" d="M65.138 67.601h.313v.027h-.313z" clip-path="url(#b)"/><path fill="#DFDFDF" d="M65.138 67.571h.313v.029h-.313z" clip-path="url(#b)"/><path fill="#DEDDDD" d="M65.138 67.541h.313v.03h-.313z" clip-path="url(#b)"/><path fill="#DBDBDB" d="M65.138 67.515h.313v.026h-.313z" clip-path="url(#b)"/><path fill="#DADADA" d="M65.138 67.485h.313v.029h-.313z" clip-path="url(#b)"/><path fill="#D8D8D8" d="M65.138 67.455h.313v.03h-.313z" clip-path="url(#b)"/><path fill="#D7D7D7" d="M65.138 67.427h.313v.028h-.313z" clip-path="url(#b)"/><path fill="#D5D5D5" d="M65.138 67.398h.313v.028h-.313z" clip-path="url(#b)"/><path fill="#D4D4D3" d="M65.138 67.369h.313v.029h-.313z" clip-path="url(#b)"/><path fill="#D2D2D2" d="M65.138 67.343h.313v.026h-.313z" clip-path="url(#b)"/><path fill="#D1D1D0" d="M65.138 67.312h.313v.031h-.313z" clip-path="url(#b)"/><path fill="#CFCFCF" d="M65.138 67.283h.313v.028h-.313z" clip-path="url(#b)"/><path fill="#CDCDCD" d="M65.138 67.254h.313v.029h-.313z" clip-path="url(#b)"/><path fill="#CCC" d="M65.138 67.227h.313v.027h-.313z" clip-path="url(#b)"/><path fill="#CACACA" d="M65.138 67.197h.313v.029h-.313z" clip-path="url(#b)"/><path fill="#C9C9C8" d="M65.138 67.171h.313v.026h-.313z" clip-path="url(#b)"/><path fill="#C7C7C7" d="M65.138 67.141h.313v.03h-.313z" clip-path="url(#b)"/><path fill="#C6C6C5" d="M65.138 67.11h.313v.03h-.313z" clip-path="url(#b)"/><path fill="#C4C4C4" d="M65.138 67.084h.313v.026h-.313z" clip-path="url(#b)"/><path fill="#C3C3C2" d="M65.138 67.054h.313v.03h-.313z" clip-path="url(#b)"/><path fill="#C1C1C1" d="M65.138 67.025h.313v.028h-.313z" clip-path="url(#b)"/><path fill="#C0BFBF" d="M65.138 66.998h.313v.027h-.313z" clip-path="url(#b)"/><path fill="#BEBEBE" d="M65.138 66.968h.313v.03h-.313z" clip-path="url(#b)"/><path fill="#BCBCBC" d="M65.138 66.939h.313v.028h-.313z" clip-path="url(#b)"/><path fill="#BBBBBA" d="M65.138 66.912h.313v.027h-.313z" clip-path="url(#b)"/><path fill="#B9B9B9" d="M65.138 66.884h.313v.028h-.313z" clip-path="url(#b)"/><path fill="#B8B8B7" d="M65.138 66.853h.313v.031h-.313z" clip-path="url(#b)"/><path fill="#B7B7B7" d="M65.138 66.829h.313v.023h-.313z" clip-path="url(#b)"/><path fill="#B5B5B5" d="M65.138 66.797h.313v.032h-.313z" clip-path="url(#b)"/><path fill="#B4B4B3" d="M65.138 66.77h.313v.027h-.313z" clip-path="url(#b)"/><path fill="#B2B2B2" d="M65.138 66.741h.313v.028h-.313z" clip-path="url(#b)"/><path fill="#B1B0B0" d="M65.138 66.71h.313v.031h-.313z" clip-path="url(#b)"/><path fill="#AFAFAE" d="M65.138 66.683h.313v.027h-.313z" clip-path="url(#b)"/><path fill="#AEAEAE" d="M65.138 66.653h.313v.029h-.313z" clip-path="url(#b)"/><path fill="#ACACAC" d="M65.138 66.625h.313v.028h-.313z" clip-path="url(#b)"/><path fill="#ABABAA" d="M65.138 66.599h.313v.026h-.313z" clip-path="url(#b)"/><path fill="#A9A9A9" d="M65.138 66.569h.313v.029h-.313z" clip-path="url(#b)"/><path fill="#A8A8A8" d="M65.138 66.541h.313v.028h-.313z" clip-path="url(#b)"/><path fill="#A7A6A6" d="M65.138 66.513h.313v.028h-.313z" clip-path="url(#b)"/><path fill="#A5A5A4" d="M65.138 66.483h.313v.029h-.313z" clip-path="url(#b)"/><path fill="#A4A4A4" d="M65.138 66.453h.313v.03h-.313z" clip-path="url(#b)"/><path fill="#A2A2A2" d="M65.138 66.426h.313v.027h-.313z" clip-path="url(#b)"/><path fill="#A1A1A0" d="M65.138 66.398h.313v.027h-.313z" clip-path="url(#b)"/><path fill="#A0A09F" d="M65.138 66.369h.313v.029h-.313z" clip-path="url(#b)"/><path fill="#9E9E9E" d="M65.138 66.34h.313v.029h-.313z" clip-path="url(#b)"/><path fill="#9C9C9C" d="M65.138 66.311h.313v.029h-.313z" clip-path="url(#b)"/><path fill="#9C9B9B" d="M65.138 66.281h.313v.029h-.313z" clip-path="url(#b)"/><path fill="#9A9A99" d="M65.138 66.251h.313v.03h-.313z" clip-path="url(#b)"/><path fill="#989898" d="M65.138 66.225h.313v.026h-.313z" clip-path="url(#b)"/><path fill="#979797" d="M65.138 66.196h.313v.028h-.313z" clip-path="url(#b)"/><path fill="#969695" d="M65.138 66.169h.313v.027h-.313z" clip-path="url(#b)"/><path fill="#959594" d="M65.138 66.139h.313v.03h-.313z" clip-path="url(#b)"/><path fill="#939393" d="M65.138 66.11h.313v.028h-.313z" clip-path="url(#b)"/><path fill="#929292" d="M65.138 66.08h.313v.03h-.313z" clip-path="url(#b)"/><path fill="#919190" d="M65.138 66.053h.313v.027h-.313z" clip-path="url(#b)"/><path fill="#90908F" d="M65.138 66.024h.313v.028h-.313z" clip-path="url(#b)"/><path fill="#8E8E8D" d="M65.138 65.996h.313v.028h-.313z" clip-path="url(#b)"/><path fill="#8D8D8D" d="M65.138 65.967h.313v.029h-.313z" clip-path="url(#b)"/><path fill="#8C8B8B" d="M65.138 65.937h.313v.03h-.313z" clip-path="url(#b)"/><path fill="#8B8B8A" d="M65.138 65.91h.313v.026h-.313z" clip-path="url(#b)"/><path fill="#898988" d="M65.138 65.882h.313v.028h-.313z" clip-path="url(#b)"/><path fill="#888887" d="M65.138 65.853h.313v.029h-.313z" clip-path="url(#b)"/><path fill="#868686" d="M65.138 65.823h.313v.029h-.313z" clip-path="url(#b)"/><path fill="#868585" d="M65.138 65.795h.313v.028h-.313z" clip-path="url(#b)"/><path fill="#858484" d="M65.138 65.766h.313v.029h-.313z" clip-path="url(#b)"/><path fill="#838382" d="M65.138 65.741h.313v.024h-.313z" clip-path="url(#b)"/><path fill="#828281" d="M65.138 65.708h.313v.033h-.313z" clip-path="url(#b)"/><path fill="gray" d="M65.138 65.68h.313v.028h-.313z" clip-path="url(#b)"/><path fill="#80807F" d="M65.138 65.65h.313v.029h-.313z" clip-path="url(#b)"/><path fill="#7F7F7E" d="M65.138 65.622h.313v.028h-.313z" clip-path="url(#b)"/><path fill="#7D7D7D" d="M65.138 65.593h.313v.029h-.313z" clip-path="url(#b)"/><path fill="#7C7C7C" d="M65.138 65.564h.313v.028h-.313z" clip-path="url(#b)"/><path fill="#7C7B7B" d="M65.138 65.539h.313v.025h-.313z" clip-path="url(#b)"/><path fill="#7A7979" d="M65.138 65.507h.313v.032h-.313z" clip-path="url(#b)"/><path fill="#797878" d="M65.138 65.479h.313v.028h-.313z" clip-path="url(#b)"/><path fill="#787777" d="M65.138 65.449h.313v.029h-.313z" clip-path="url(#b)"/><path fill="#777776" d="M65.138 65.42h.313v.029h-.313z" clip-path="url(#b)"/><path fill="#757574" d="M65.138 65.393h.313v.027h-.313z" clip-path="url(#b)"/><path fill="#747473" d="M65.138 65.364h.313v.028h-.313z" clip-path="url(#b)"/><path fill="#737372" d="M65.138 65.335h.313v.029h-.313z" clip-path="url(#b)"/><path fill="#727271" d="M65.138 65.305h.313v.03h-.313z" clip-path="url(#b)"/><path fill="#70706F" d="M65.138 65.279h.313v.025h-.313z" clip-path="url(#b)"/><path fill="#6F6F6E" d="M65.138 65.247h.313v.032h-.313z" clip-path="url(#b)"/><path fill="#6E6E6D" d="M65.138 65.225h.313v.022h-.313z" clip-path="url(#b)"/><path fill="#6D6D6C" d="M65.138 65.192h.313v.032h-.313z" clip-path="url(#b)"/><path fill="#6C6C6B" d="M65.138 65.163h.313v.029h-.313z" clip-path="url(#b)"/><path fill="#6A6A6A" d="M65.138 65.137h.313v.026h-.313z" clip-path="url(#b)"/><path fill="#696969" d="M65.138 65.105h.313v.031h-.313z" clip-path="url(#b)"/><path fill="#696868" d="M65.138 65.078h.313v.027h-.313z" clip-path="url(#b)"/><path fill="#686767" d="M65.138 65.048h.313v.03h-.313z" clip-path="url(#b)"/><path fill="#676666" d="M65.138 65.021h.313v.027h-.313z" clip-path="url(#b)"/><path fill="#666565" d="M65.138 64.994h.313v.026h-.313z" clip-path="url(#b)"/><path fill="#656464" d="M65.138 64.964h.313v.03h-.313z" clip-path="url(#b)"/><path fill="#646463" d="M65.138 64.936h.313v.028h-.313z" clip-path="url(#b)"/><path fill="#636362" d="M65.138 64.906h.313v.029h-.313z" clip-path="url(#b)"/><path fill="#616160" d="M65.138 64.878h.313v.028h-.313z" clip-path="url(#b)"/><path fill="#60605F" d="M65.138 64.851h.313v.027h-.313z" clip-path="url(#b)"/><path fill="#5F5F5E" d="M65.138 64.821h.313v.029h-.313z" clip-path="url(#b)"/><path fill="#5E5E5D" d="M65.138 64.794h.313v.027h-.313z" clip-path="url(#b)"/><path fill="#5D5D5C" d="M65.138 64.763h.313v.031h-.313z" clip-path="url(#b)"/><path fill="#5C5C5B" d="M65.138 64.735h.313v.027h-.313z" clip-path="url(#b)"/><path fill="#5B5B5A" d="M65.138 64.707h.313v.028h-.313z" clip-path="url(#b)"/><path fill="#5A5A59" d="M65.138 64.678h.313v.029h-.313z" clip-path="url(#b)"/><path fill="#595958" d="M65.138 64.646h.313v.031h-.313z" clip-path="url(#b)"/><path fill="#585857" d="M65.138 64.619h.313v.027h-.313z" clip-path="url(#b)"/><path fill="#575756" d="M65.138 64.591h.313v.028h-.313z" clip-path="url(#b)"/><path fill="#565655" d="M65.138 64.563h.313v.027h-.313zm0-.028h.313v.028h-.313z" clip-path="url(#b)"/><path fill="#555554" d="M65.138 64.506h.313v.029h-.313z" clip-path="url(#b)"/><path fill="#545453" d="M65.138 64.477h.313v.029h-.313z" clip-path="url(#b)"/><path fill="#535352" d="M65.138 64.448h.313v.028h-.313z" clip-path="url(#b)"/><path fill="#525251" d="M65.138 64.42h.313v.028h-.313z" clip-path="url(#b)"/><path fill="#515150" d="M65.138 64.391h.313v.029h-.313z" clip-path="url(#b)"/><path fill="#50504F" d="M65.138 64.363h.313v.027h-.313z" clip-path="url(#b)"/><path fill="#4F4F4E" d="M65.138 64.333h.313v.03h-.313z" clip-path="url(#b)"/><path fill="#4E4E4D" d="M65.138 64.305h.313v.028h-.313zm0-.03h.313v.029h-.313z" clip-path="url(#b)"/><path fill="#4D4D4C" d="M65.138 64.246h.313v.029h-.313z" clip-path="url(#b)"/><path fill="#4C4C4B" d="M65.138 64.218h.313v.028h-.313z" clip-path="url(#b)"/><path fill="#4B4B4A" d="M65.138 64.19h.313v.027h-.313z" clip-path="url(#b)"/><path fill="#4A4A49" d="M65.138 64.163h.313v.027h-.313z" clip-path="url(#b)"/><path fill="#494848" d="M65.138 64.133h.313v.03h-.313zm0-.029h.313v.028h-.313z" clip-path="url(#b)"/><path fill="#484747" d="M65.138 64.075h.313v.029h-.313z" clip-path="url(#b)"/><path fill="#474646" d="M65.138 64.049h.313v.026h-.313z" clip-path="url(#b)"/><path fill="#464544" d="M65.138 64.019h.313v.03h-.313zm0-.028h.313v.027h-.313z" clip-path="url(#b)"/><path fill="#454443" d="M65.138 63.96h.313v.031h-.313z" clip-path="url(#b)"/><path fill="#434342" d="M65.138 63.935h.313v.025h-.313z" clip-path="url(#b)"/><path fill="#424241" d="M65.138 63.904h.313v.03h-.313zm0-.027h.313v.027h-.313z" clip-path="url(#b)"/><path fill="#414140" d="M65.138 63.848h.313v.029h-.313z" clip-path="url(#b)"/><path fill="#40403F" d="M65.138 63.816h.313v.031h-.313zm0-.023h.313v.023h-.313z" clip-path="url(#b)"/><path fill="#3F3F3E" d="M65.138 63.763h.313v.03h-.313z" clip-path="url(#b)"/><path fill="#3E3E3D" d="M65.138 63.731h.313v.031h-.313zm0-.027h.313v.027h-.313z" clip-path="url(#b)"/><path fill="#3D3D3C" d="M65.138 63.677h.313v.027h-.313z" clip-path="url(#b)"/><path fill="#3C3C3B" d="M65.138 63.646h.313v.03h-.313zm0-.028h.313v.028h-.313z" clip-path="url(#b)"/><path fill="#3B3A3A" d="M65.138 63.59h.313v.028h-.313z" clip-path="url(#b)"/><path fill="#3A3938" d="M65.138 63.561h.313v.029h-.313zm0-.029h.313v.028h-.313z" clip-path="url(#b)"/><path fill="#383837" d="M65.138 63.504h.313v.028h-.313z" clip-path="url(#b)"/><path fill="#383837" d="M65.138 63.478h.313v.026h-.313z" clip-path="url(#b)"/><path fill="#373736" d="M65.138 63.447h.313v.03h-.313zm0-.031h.313v.031h-.313z" clip-path="url(#b)"/><path fill="#363635" d="M65.138 63.391h.313v.025h-.313z" clip-path="url(#b)"/><path fill="#353534" d="M65.138 63.359h.313v.031h-.313zm0-.028h.313v.028h-.313z" clip-path="url(#b)"/><path fill="#343433" d="M65.138 63.302h.313v.029h-.313zm0-.03h.313v.029h-.313z" clip-path="url(#b)"/><path fill="#333332" d="M65.138 63.245h.313v.027h-.313z" clip-path="url(#b)"/><path fill="#333332" d="M65.138 63.215h.313v.03h-.313z" clip-path="url(#b)"/><path fill="#323130" d="M65.138 63.188h.313v.027h-.313zm0-.03h.313v.029h-.313z" clip-path="url(#b)"/><path fill="#30302F" d="M65.138 63.131h.313v.027h-.313zm0-.027h.313v.027h-.313z" clip-path="url(#b)"/><path fill="#2F2F2E" d="M65.138 63.072h.313v.031h-.313zm0-.027h.313v.027h-.313z" clip-path="url(#b)"/><path fill="#2E2E2D" d="M65.138 63.015h.313v.03h-.313zm0-.027h.313v.026h-.313z" clip-path="url(#b)"/><path fill="#2E2E2D" d="M65.138 62.959h.313v.029h-.313z" clip-path="url(#b)"/><path fill="#2D2D2B" d="M65.138 62.929h.313v.03h-.313zm0-.029h.313v.028h-.313z" clip-path="url(#b)"/><path fill="#2B2B2A" d="M65.138 62.872h.313v.028h-.313z" clip-path="url(#b)"/><path fill="#2B2B2A" d="M65.138 62.843h.313v.029h-.313zm0-.025h.313v.024h-.313z" clip-path="url(#b)"/><path fill="#2A2A29" d="M65.138 62.784h.313v.034h-.313z" clip-path="url(#b)"/><path fill="#2A2A29" d="M65.138 62.761h.313v.023h-.313z" clip-path="url(#b)"/><path fill="#292928" d="M65.138 62.729h.313v.031h-.313z" clip-path="url(#b)"/><path fill="#292928" d="M65.138 62.703h.313v.026h-.313zm0-.031h.313v.031h-.313z" clip-path="url(#b)"/><path fill="#282726" d="M65.138 62.642h.313v.03h-.313zm0-.028h.313v.027h-.313zM65.138 62.584h.313v.03h-.313z" clip-path="url(#b)"/><path fill="#262625" d="M65.138 62.558h.313v.026h-.313zm0-.031h.313v.03h-.313zm0-.027h.313v.027h-.313z" clip-path="url(#b)"/><path fill="#252524" d="M65.138 62.47h.313v.03h-.313zm0-.026h.313v.025h-.313zm0-.032h.313v.032h-.313zm0-.028h.313v.028h-.313z" clip-path="url(#b)"/><path fill="#242422" d="M65.138 62.357h.313v.026h-.313zm0-.028h.313v.028h-.313zm0-.028h.313v.028h-.313zm0-.031h.313v.031h-.313z" clip-path="url(#b)"/><path fill="#222221" d="M65.138 62.243h.313v.026h-.313zm0-.031h.313v.031h-.313zm0-.028h.313v.028h-.313zm0-.027h.313v.026h-.313z" clip-path="url(#b)"/><path fill="#212120" d="M65.138 62.126h.313v.031h-.313z" clip-path="url(#b)"/><path fill="#212120" d="M65.138 62.1h.313v.026h-.313zm0-.028h.313v.027h-.313zm0-.03h.313v.03h-.313zm0-.028h.313v.028h-.313z" clip-path="url(#b)"/><path fill="#20201E" d="M65.138 61.987h.313v.026h-.313zm0-.031h.313v.031h-.313zm0-.027h.313v.027h-.313zm0-.03h.313v.029h-.313zm0-.029h.313v.029h-.313zm0-.028h.313v.028h-.313z" clip-path="url(#b)"/><path fill="#20201E" d="M65.138 61.813h.313v.029h-.313z" clip-path="url(#b)"/><path fill="#1E1E1D" d="M65.138 61.785h.313v.027h-.313z" clip-path="url(#b)"/><path fill="#1E1E1D" d="M65.138 61.756h.313v.029h-.313zm0-.028h.313v.028h-.313zm0-.028h.313v.027h-.313zm0-.03h.313v.03h-.313zm0-.028h.313v.028h-.313zm0-.031h.313v.03h-.313zm0-.028h.313v.028h-.313z" clip-path="url(#b)"/><path fill="#1D1D1B" d="M65.138 61.556h.313v.027h-.313zm0-.029h.313v.028h-.313zm0-.029h.313v.029h-.313z" clip-path="url(#b)"/><path fill="#1D1D1B" d="M65.138 61.468h.313v.03h-.313zm0-.028h.313v.027h-.313zm0-.03h.313v.03h-.313zM65.138 61.384h.313v.026h-.313zm0-.029h.313v.028h-.313z" clip-path="url(#b)"/><path fill="#1D1D1B" d="M65.138 61.326h.313v.029h-.313zm0-.029h.313v.029h-.313zm0-.028h.313v.028h-.313zm0-.029h.313v.028h-.313zm0-.027h.313v.027h-.313zm0-.03h.313v.03h-.313zm0-.029h.313v.028h-.313zm0-.029h.313v.029h-.313zm0-.029h.313v.029h-.313zm0-.029h.313v.028h-.313zm0-.029h.313v.029h-.313zm0-.025h.313v.025h-.313zm0-.034h.313v.033h-.313zm0-.025h.313v.025h-.313zm0-.029h.313v.029h-.313zm0-.028h.313v.027h-.313zm0-.028h.313v.028h-.313zm0-.03h.313v.03h-.313z" clip-path="url(#b)"/><path fill="#1D1D1B" d="M65.138 60.81h.313v.029h-.313zm0-.029h.313v.028h-.313z" clip-path="url(#b)"/><path fill="#1D1D1B" d="M65.138 60.752h.313v.029h-.313zm0-.03h.313v.03h-.313zm0-.028h.313v.027h-.313zm0-.029h.313v.029h-.313z" clip-path="url(#b)"/><path fill="#1D1D1B" d="M65.138 60.636h.313v.029h-.313zm0-.029h.313v.028h-.313z" clip-path="url(#b)"/><path fill="#1D1D1B" d="M65.138 60.578h.313v.029h-.313zm0-.031h.313v.031h-.313zm0-.025h.313v.024h-.313zm0-.033h.313v.033h-.313zM65.138 60.462h.313v.027h-.313zm0-.029h.313v.029h-.313zm0-.03h.313v.029h-.313zm0-.027h.313v.027h-.313z" clip-path="url(#b)"/><path fill="#1D1D1B" d="M65.138 60.347h.313v.029h-.313zm0-.028h.313v.027h-.313zm0-.033h.313v.033h-.313z" clip-path="url(#b)"/><path fill="#1E1E1D" d="M65.138 60.262h.313v.024h-.313zm0-.03h.313v.029h-.313zm0-.03h.313v.03h-.313zm0-.031h.313v.031h-.313zm0-.028h.313v.028h-.313zm0-.029h.313v.028h-.313z" clip-path="url(#b)"/><path fill="#1E1E1D" d="M65.138 60.085h.313v.029h-.313z" clip-path="url(#b)"/><path fill="#20201E" d="M65.138 60.059h.313v.026h-.313zm0-.036h.313v.035h-.313zm0-.025h.313v.025h-.313zm0-.028h.313v.028h-.313zm0-.029h.313v.028h-.313z" clip-path="url(#b)"/><path fill="#212120" d="M65.138 59.911h.313v.03h-.313zm0-.029h.313v.029h-.313zm0-.028h.313v.028h-.313zm0-.031h.313v.03h-.313zm0-.026h.313v.026h-.313z" clip-path="url(#b)"/><path fill="#222221" d="M65.138 59.766h.313v.031h-.313zm0-.031h.313v.03h-.313zm0-.027h.313v.027h-.313z" clip-path="url(#b)"/><path fill="#222221" d="M65.138 59.679h.313v.029h-.313z" clip-path="url(#b)"/><path fill="#242422" d="M65.138 59.65h.313v.028h-.313zm0-.028h.313v.028h-.313z" clip-path="url(#b)"/><path fill="#242422" d="M65.138 59.593h.313v.029h-.313z" clip-path="url(#b)"/><path fill="#252524" d="M65.138 59.563h.313v.03h-.313zm0-.031h.313v.03h-.313zM65.138 59.505h.313v.027h-.313z" clip-path="url(#b)"/><path fill="#262625" d="M65.138 59.477h.313v.028h-.313zm0-.03h.313v.029h-.313zm0-.029h.313v.029h-.313z" clip-path="url(#b)"/><path fill="#282726" d="M65.138 59.386h.313v.032h-.313zm0-.027h.313v.026h-.313zm0-.027h.313v.027h-.313z" clip-path="url(#b)"/><path fill="#292928" d="M65.138 59.302h.313v.03h-.313zm0-.028h.313v.027h-.313zm0-.031h.313v.031h-.313z" clip-path="url(#b)"/><path fill="#2A2A29" d="M65.138 59.216h.313v.027h-.313zm0-.03h.313v.03h-.313z" clip-path="url(#b)"/><path fill="#2B2B2A" d="M65.138 59.158h.313v.027h-.313zm0-.028h.313v.028h-.313zm0-.031h.313v.031h-.313z" clip-path="url(#b)"/><path fill="#2D2D2B" d="M65.138 59.072h.313v.026h-.313zm0-.032h.313v.032h-.313z" clip-path="url(#b)"/><path fill="#2E2E2D" d="M65.138 59.013h.313v.027h-.313zm0-.031h.313v.03h-.313z" clip-path="url(#b)"/><path fill="#2F2F2E" d="M65.138 58.955h.313v.027h-.313z" clip-path="url(#b)"/><path fill="#2F2F2E" d="M65.138 58.926h.313v.029h-.313zm0-.03h.313v.029h-.313z" clip-path="url(#b)"/><path fill="#30302F" d="M65.138 58.867h.313v.029h-.313z" clip-path="url(#b)"/><path fill="#30302F" d="M65.138 58.837h.313v.03h-.313z" clip-path="url(#b)"/><path fill="#323130" d="M65.138 58.81h.313v.027h-.313zm0-.031h.313v.03h-.313z" clip-path="url(#b)"/><path fill="#333332" d="M65.138 58.75h.313v.029h-.313z" clip-path="url(#b)"/><path fill="#343433" d="M65.138 58.721h.313v.029h-.313zm0-.029h.313v.028h-.313z" clip-path="url(#b)"/><path fill="#353534" d="M65.138 58.664h.313v.028h-.313zm0-.029h.313v.029h-.313z" clip-path="url(#b)"/><path fill="#363635" d="M65.138 58.605h.313v.029h-.313z" clip-path="url(#b)"/><path fill="#363635" d="M65.138 58.575h.313v.03h-.313z" clip-path="url(#b)"/><path fill="#373736" d="M65.138 58.547h.313v.028h-.313z" clip-path="url(#b)"/><path fill="#373736" d="M65.138 58.52h.313v.027h-.313z" clip-path="url(#b)"/><path fill="#383837" d="M65.138 58.488h.313v.031h-.313z" clip-path="url(#b)"/><path fill="#3A3938" d="M65.138 58.46h.313v.028h-.313zm0-.029h.313v.029h-.313z" clip-path="url(#b)"/><path fill="#3B3A3A" d="M65.138 58.402h.313v.028h-.313zm0-.028h.313v.028h-.313z" clip-path="url(#b)"/><path fill="#3C3C3B" d="M65.138 58.347h.313v.027h-.313z" clip-path="url(#b)"/><path fill="#3D3D3C" d="M65.138 58.313h.313v.034h-.313zm0-.027h.313v.026h-.313z" clip-path="url(#b)"/><path fill="#3E3E3D" d="M65.138 58.261h.313v.025h-.313z" clip-path="url(#b)"/><path fill="#3F3F3E" d="M65.138 58.229h.313v.031h-.313z" clip-path="url(#b)"/><path fill="#3F3F3E" d="M65.138 58.2h.313v.029h-.313z" clip-path="url(#b)"/><path fill="#40403F" d="M65.138 58.17h.313v.03h-.313z" clip-path="url(#b)"/><path fill="#414140" d="M65.138 58.142h.313v.028h-.313zm0-.029h.313v.028h-.313z" clip-path="url(#b)"/><path fill="#424241" d="M65.138 58.086h.313v.027h-.313z" clip-path="url(#b)"/><path fill="#434342" d="M65.138 58.054h.313v.032h-.313zm0-.029h.313v.028h-.313z" clip-path="url(#b)"/><path fill="#454443" d="M65.138 57.995h.313v.03h-.313z" clip-path="url(#b)"/><path fill="#464544" d="M65.138 57.968h.313v.027h-.313z" clip-path="url(#b)"/><path fill="#474646" d="M65.138 57.939h.313v.028h-.313zm0-.029h.313v.029h-.313z" clip-path="url(#b)"/><path fill="#484747" d="M65.138 57.882h.313v.028h-.313z" clip-path="url(#b)"/><path fill="#494848" d="M65.138 57.85h.313v.032h-.313z" clip-path="url(#b)"/><path fill="#4A4A49" d="M65.138 57.823h.313v.026h-.313z" clip-path="url(#b)"/><path fill="#4B4B4A" d="M65.138 57.794h.313v.029h-.313z" clip-path="url(#b)"/><path fill="#4B4B4A" d="M65.138 57.765h.313v.029h-.313z" clip-path="url(#b)"/><path fill="#4C4C4B" d="M65.138 57.736h.313v.028h-.313z" clip-path="url(#b)"/><path fill="#4D4D4C" d="M65.138 57.706h.313v.03h-.313z" clip-path="url(#b)"/><path fill="#4E4E4D" d="M65.138 57.677h.313v.029h-.313z" clip-path="url(#b)"/><path fill="#4F4F4E" d="M65.138 57.648h.313v.028h-.313zm0-.029h.313v.029h-.313z" clip-path="url(#b)"/><path fill="#50504F" d="M65.138 57.594h.313v.025h-.313z" clip-path="url(#b)"/><path fill="#515150" d="M65.138 57.563h.313v.031h-.313z" clip-path="url(#b)"/><path fill="#525251" d="M65.138 57.534h.313v.028h-.313z" clip-path="url(#b)"/><path fill="#535352" d="M65.138 57.503h.313v.031h-.313z" clip-path="url(#b)"/><path fill="#545453" d="M65.138 57.476h.313v.027h-.313z" clip-path="url(#b)"/><path fill="#555554" d="M65.138 57.445h.313v.03h-.313z" clip-path="url(#b)"/><path fill="#565655" d="M65.138 57.417h.313v.028h-.313zm0-.028h.313v.028h-.313z" clip-path="url(#b)"/><path fill="#575756" d="M65.138 57.359h.313v.029h-.313z" clip-path="url(#b)"/><path fill="#585857" d="M65.138 57.332h.313v.027h-.313z" clip-path="url(#b)"/><path fill="#595958" d="M65.138 57.301h.313v.031h-.313z" clip-path="url(#b)"/><path fill="#5A5A59" d="M65.138 57.271h.313v.029h-.313z" clip-path="url(#b)"/><path fill="#5B5B5A" d="M65.138 57.242h.313v.029h-.313z" clip-path="url(#b)"/><path fill="#5C5C5B" d="M65.138 57.215h.313v.027h-.313z" clip-path="url(#b)"/><path fill="#5D5D5C" d="M65.138 57.186h.313v.029h-.313z" clip-path="url(#b)"/><path fill="#5E5E5D" d="M65.138 57.155h.313v.03h-.313z" clip-path="url(#b)"/><path fill="#5F5F5E" d="M65.138 57.128h.313v.027h-.313z" clip-path="url(#b)"/><path fill="#60605F" d="M65.138 57.1h.313v.028h-.313z" clip-path="url(#b)"/><path fill="#616160" d="M65.138 57.069h.313v.03h-.313z" clip-path="url(#b)"/><path fill="#626261" d="M65.138 57.043h.313v.026h-.313z" clip-path="url(#b)"/><path fill="#636362" d="M65.138 57.01h.313v.033h-.313z" clip-path="url(#b)"/><path fill="#646463" d="M65.138 56.981h.313v.028h-.313z" clip-path="url(#b)"/><path fill="#656464" d="M65.138 56.952h.313v.029h-.313z" clip-path="url(#b)"/><path fill="#666565" d="M65.138 56.924h.313v.028h-.313z" clip-path="url(#b)"/><path fill="#676666" d="M65.138 56.896h.313v.028h-.313z" clip-path="url(#b)"/><path fill="#686767" d="M65.138 56.867h.313v.028h-.313z" clip-path="url(#b)"/><path fill="#696868" d="M65.138 56.84h.313v.027h-.313z" clip-path="url(#b)"/><path fill="#696969" d="M65.138 56.808h.313v.032h-.313z" clip-path="url(#b)"/><path fill="#6A6A6A" d="M65.138 56.783h.313v.024h-.313z" clip-path="url(#b)"/><path fill="#6C6C6B" d="M65.138 56.749h.313v.034h-.313z" clip-path="url(#b)"/><path fill="#6D6D6C" d="M65.138 56.721h.313v.028h-.313z" clip-path="url(#b)"/><path fill="#6E6E6D" d="M65.138 56.692h.313v.028h-.313z" clip-path="url(#b)"/><path fill="#6F6F6E" d="M65.138 56.664h.313v.028h-.313z" clip-path="url(#b)"/><path fill="#70706F" d="M65.138 56.636h.313v.028h-.313z" clip-path="url(#b)"/><path fill="#717170" d="M65.138 56.604h.313v.031h-.313z" clip-path="url(#b)"/><path fill="#727271" d="M65.138 56.577h.313v.027h-.313z" clip-path="url(#b)"/><path fill="#737372" d="M65.138 56.55h.313v.027h-.313z" clip-path="url(#b)"/><path fill="#757574" d="M65.138 56.521h.313v.029h-.313z" clip-path="url(#b)"/><path fill="#767675" d="M65.138 56.491h.313v.029h-.313z" clip-path="url(#b)"/><path fill="#777776" d="M65.138 56.459h.313v.032h-.313z" clip-path="url(#b)"/><path fill="#787777" d="M65.138 56.43h.313v.029h-.313z" clip-path="url(#b)"/><path fill="#797878" d="M65.138 56.401h.313v.028h-.313z" clip-path="url(#b)"/><path fill="#7B7A7A" d="M65.138 56.374h.313v.027h-.313z" clip-path="url(#b)"/><path fill="#7C7B7B" d="M65.138 56.345h.313v.029h-.313z" clip-path="url(#b)"/><path fill="#7C7C7C" d="M65.138 56.316h.313v.028h-.313z" clip-path="url(#b)"/><path fill="#7D7D7D" d="M65.138 56.287h.313v.029h-.313z" clip-path="url(#b)"/><path fill="#7E7E7E" d="M65.138 56.255h.313v.032h-.313z" clip-path="url(#b)"/><path fill="#80807F" d="M65.138 56.229h.313v.026h-.313z" clip-path="url(#b)"/><path fill="gray" d="M65.138 56.199h.313v.029h-.313z" clip-path="url(#b)"/><path fill="#818180" d="M65.138 56.17h.313v.029h-.313z" clip-path="url(#b)"/><path fill="#838382" d="M65.138 56.142h.313v.028h-.313z" clip-path="url(#b)"/><path fill="#848483" d="M65.138 56.113h.313v.028h-.313z" clip-path="url(#b)"/><path fill="#858484" d="M65.138 56.081h.313v.032h-.313z" clip-path="url(#b)"/><path fill="#868585" d="M65.138 56.055h.313v.026h-.313z" clip-path="url(#b)"/><path fill="#878787" d="M65.138 56.027h.313v.027h-.313z" clip-path="url(#b)"/><path fill="#888887" d="M65.138 55.995h.313v.032h-.313z" clip-path="url(#b)"/><path fill="#898988" d="M65.138 55.965h.313v.03h-.313z" clip-path="url(#b)"/><path fill="#8B8B8A" d="M65.138 55.938h.313v.027h-.313z" clip-path="url(#b)"/><path fill="#8C8B8B" d="M65.138 55.908h.313v.029h-.313z" clip-path="url(#b)"/><path fill="#8C8C8C" d="M65.138 55.88h.313v.028h-.313z" clip-path="url(#b)"/><path fill="#8E8E8D" d="M65.138 55.854h.313v.025h-.313z" clip-path="url(#b)"/><path fill="#8F8F8E" d="M65.138 55.82h.313v.034h-.313z" clip-path="url(#b)"/><path fill="#919190" d="M65.138 55.792h.313v.028h-.313z" clip-path="url(#b)"/><path fill="#929191" d="M65.138 55.766h.313v.026h-.313z" clip-path="url(#b)"/><path fill="#929292" d="M65.138 55.735h.313v.03h-.313z" clip-path="url(#b)"/><path fill="#949493" d="M65.138 55.704h.313v.031h-.313z" clip-path="url(#b)"/><path fill="#959594" d="M65.138 55.676h.313v.028h-.313z" clip-path="url(#b)"/><path fill="#979696" d="M65.138 55.649h.313v.026h-.313z" clip-path="url(#b)"/><path fill="#979797" d="M65.138 55.619h.313v.03h-.313z" clip-path="url(#b)"/><path fill="#989898" d="M65.138 55.593h.313v.026h-.313z" clip-path="url(#b)"/><path fill="#9A9A99" d="M65.138 55.562h.313v.031h-.313z" clip-path="url(#b)"/><path fill="#9B9B9A" d="M65.138 55.53h.313v.031h-.313z" clip-path="url(#b)"/><path fill="#9C9C9C" d="M65.138 55.506h.313v.024h-.313z" clip-path="url(#b)"/><path fill="#9D9D9D" d="M65.138 55.475h.313v.031h-.313z" clip-path="url(#b)"/><path fill="#9F9F9E" d="M65.138 55.444h.313v.03h-.313z" clip-path="url(#b)"/><path fill="#A0A09F" d="M65.138 55.417h.313v.027h-.313z" clip-path="url(#b)"/><path fill="#A2A1A1" d="M65.138 55.389h.313v.028h-.313z" clip-path="url(#b)"/><path fill="#A2A2A2" d="M65.138 55.358h.313v.03h-.313z" clip-path="url(#b)"/><path fill="#A4A4A4" d="M65.138 55.329h.313v.029h-.313z" clip-path="url(#b)"/><path fill="#A5A5A4" d="M65.138 55.302h.313v.027h-.313z" clip-path="url(#b)"/><path fill="#A7A6A6" d="M65.138 55.27h.313v.032h-.313z" clip-path="url(#b)"/><path fill="#A8A8A8" d="M65.138 55.241h.313v.028h-.313z" clip-path="url(#b)"/><path fill="#A9A9A9" d="M65.138 55.211h.313v.03h-.313z" clip-path="url(#b)"/><path fill="#ABABAA" d="M65.138 55.183h.313v.028h-.313z" clip-path="url(#b)"/><path fill="#ACABAB" d="M65.138 55.156h.313v.026h-.313z" clip-path="url(#b)"/><path fill="#ADADAD" d="M65.138 55.128h.313v.028h-.313z" clip-path="url(#b)"/><path fill="#AEAEAE" d="M65.138 55.098h.313v.03h-.313z" clip-path="url(#b)"/><path fill="#B0B0AF" d="M65.138 55.069h.313v.028h-.313z" clip-path="url(#b)"/><path fill="#B1B1B1" d="M65.138 55.041h.313v.028h-.313z" clip-path="url(#b)"/><path fill="#B2B2B2" d="M65.138 55.009h.313v.032h-.313z" clip-path="url(#b)"/><path fill="#B4B4B3" d="M65.138 54.98h.313v.028h-.313z" clip-path="url(#b)"/><path fill="#B5B5B5" d="M65.138 54.952h.313v.028h-.313z" clip-path="url(#b)"/><path fill="#B6B6B6" d="M65.138 54.924h.313v.028h-.313z" clip-path="url(#b)"/><path fill="#B8B8B7" d="M65.138 54.894h.313v.03h-.313z" clip-path="url(#b)"/><path fill="#B9B9B9" d="M65.138 54.864h.313v.029h-.313z" clip-path="url(#b)"/><path fill="#BABABA" d="M65.138 54.835h.313v.029h-.313z" clip-path="url(#b)"/><path fill="#BCBCBB" d="M65.138 54.81h.313v.025h-.313z" clip-path="url(#b)"/><path fill="#BDBDBD" d="M65.138 54.78h.313v.029h-.313z" clip-path="url(#b)"/><path fill="#BEBEBE" d="M65.138 54.749h.313v.031h-.313z" clip-path="url(#b)"/><path fill="#C0BFBF" d="M65.138 54.72h.313v.029h-.313z" clip-path="url(#b)"/><path fill="#C1C1C1" d="M65.138 54.69h.313v.029h-.313z" clip-path="url(#b)"/><path fill="#C2C2C2" d="M65.138 54.665h.313v.025h-.313z" clip-path="url(#b)"/><path fill="#C3C3C3" d="M65.138 54.634h.313v.031h-.313z" clip-path="url(#b)"/><path fill="#C5C5C5" d="M65.138 54.605h.313v.028h-.313z" clip-path="url(#b)"/><path fill="#C7C6C6" d="M65.138 54.576h.313v.029h-.313z" clip-path="url(#b)"/><path fill="#C7C7C7" d="M65.138 54.546h.313v.03h-.313z" clip-path="url(#b)"/><path fill="#C9C9C8" d="M65.138 54.517h.313v.029h-.313z" clip-path="url(#b)"/><path fill="#CACACA" d="M65.138 54.488h.313v.028h-.313z" clip-path="url(#b)"/><path fill="#CCC" d="M65.138 54.46h.313v.028h-.313z" clip-path="url(#b)"/><path fill="#CDCDCD" d="M65.138 54.431h.313v.029h-.313z" clip-path="url(#b)"/><path fill="#CECECE" d="M65.138 54.403h.313v.027h-.313z" clip-path="url(#b)"/><path fill="#D0D0D0" d="M65.138 54.373h.313v.03h-.313z" clip-path="url(#b)"/><path fill="#D1D1D1" d="M65.138 54.345h.313v.028h-.313z" clip-path="url(#b)"/><path fill="#D3D3D3" d="M65.138 54.317h.313v.027h-.313z" clip-path="url(#b)"/><path fill="#D5D4D4" d="M65.138 54.285h.313v.032h-.313z" clip-path="url(#b)"/><path fill="#D6D6D6" d="M65.138 54.256h.313v.029h-.313z" clip-path="url(#b)"/><path fill="#D8D8D7" d="M65.138 54.225h.313v.031h-.313z" clip-path="url(#b)"/><path fill="#D8D8D8" d="M65.138 54.197h.313v.027h-.313z" clip-path="url(#b)"/><path fill="#DADADA" d="M65.138 54.169h.313v.028h-.313z" clip-path="url(#b)"/><path fill="#DBDBDB" d="M65.138 54.14h.313v.029h-.313z" clip-path="url(#b)"/><path fill="#DDD" d="M65.138 54.112h.313v.027h-.313z" clip-path="url(#b)"/><path fill="#DEDEDE" d="M65.138 54.082h.313v.03h-.313z" clip-path="url(#b)"/><path fill="#E0E0DF" d="M65.138 54.054h.313v.028h-.313z" clip-path="url(#b)"/><path fill="#E1E1E1" d="M65.138 54.023h.313v.03h-.313z" clip-path="url(#b)"/><path fill="#E3E3E2" d="M65.138 53.993h.313v.03h-.313z" clip-path="url(#b)"/><path fill="#E4E4E4" d="M65.138 53.963h.313v.03h-.313z" clip-path="url(#b)"/><path fill="#E5E5E5" d="M65.138 53.938h.313v.025h-.313z" clip-path="url(#b)"/><path fill="#E7E7E7" d="M65.138 53.908h.313v.029h-.313z" clip-path="url(#b)"/><path fill="#E8E8E8" d="M65.138 53.879h.313v.029h-.313z" clip-path="url(#b)"/><path fill="#EAEAEA" d="M65.138 53.852h.313v.027h-.313z" clip-path="url(#b)"/><path fill="#EBEBEB" d="M65.138 53.818h.313v.033h-.313z" clip-path="url(#b)"/><path fill="#EDEDED" d="M65.138 53.792h.313v.026h-.313z" clip-path="url(#b)"/><path fill="#EEE" d="M65.138 53.764h.313v.028h-.313z" clip-path="url(#b)"/><path fill="#F0F0F0" d="M65.138 53.733h.313v.03h-.313z" clip-path="url(#b)"/><path fill="#F1F1F1" d="M65.138 53.705h.313v.028h-.313z" clip-path="url(#b)"/><path fill="#F3F3F3" d="M65.138 53.678h.313v.027h-.313z" clip-path="url(#b)"/><path fill="#F4F4F4" d="M65.138 53.647h.313v.03h-.313z" clip-path="url(#b)"/><path fill="#F5F5F5" d="M65.138 53.619h.313v.028h-.313z" clip-path="url(#b)"/><path fill="#F7F7F7" d="M65.138 53.588h.313v.031h-.313z" clip-path="url(#b)"/><path fill="#F8F8F8" d="M65.138 53.56h.313v.028h-.313z" clip-path="url(#b)"/><path fill="#FAFAFA" d="M65.138 53.529h.313v.03h-.313z" clip-path="url(#b)"/><path fill="#FBFBFB" d="M65.138 53.5h.313v.029h-.313z" clip-path="url(#b)"/><path fill="#FDFDFD" d="M65.138 53.471h.313v.029h-.313z" clip-path="url(#b)"/><path fill="#FFF" d="M65.138 53.443h.313v.027h-.313zm.313 0h-.313z" clip-path="url(#b)"/><path fill="#1D1D1B" d="M18.968 65.889c-2.19 0-3.93-1.48-3.93-3.747v-7.021h2.085v6.944c0 1.229.72 1.965 1.845 1.965s1.859-.736 1.859-1.965v-6.944h2.07v7.021c0 2.266-1.738 3.747-3.929 3.747m11.924-.089-2.086-4.261h-1.5V65.8h-2.084V55.121h4.185c2.174 0 3.463 1.483 3.463 3.269 0 1.502-.914 2.432-1.949 2.807l2.386 4.604h-2.415zm-1.62-8.819h-1.966v2.82h1.966c.914 0 1.514-.586 1.514-1.412.001-.823-.599-1.408-1.514-1.408M42.62 65.8v-6.222l-2.039 4.047h-1.41l-2.056-4.047V65.8h-2.083V55.121h2.054l2.788 5.773 2.776-5.773h2.053V65.8zm4.575 0V55.121h7.033v1.86h-4.949v2.504h4.214v1.86h-4.214v2.593h4.949V65.8zm13.152-8.819V65.8h-2.084v-8.818h-2.789v-1.86h7.663v1.86z"/><path fill="#868686" d="M74.688 64.676c-.806.855-1.812 1.213-2.936 1.213-1.112 0-2.071-.404-2.805-1.141-1.052-1.048-1.038-2.234-1.038-4.286 0-2.057-.014-3.239 1.038-4.289.733-.734 1.665-1.143 2.805-1.143 2.266 0 3.584 1.486 3.884 3.316h-1.635c-.27-1.167-1.048-1.862-2.249-1.862-.632 0-1.2.256-1.575.663-.525.568-.646 1.165-.646 3.314 0 2.146.121 2.757.646 3.331.375.401.943.643 1.575.643.704 0 1.318-.268 1.739-.751.391-.448.539-.988.539-1.679v-.599h-2.278v-1.384h3.898v1.636c.001 1.382-.255 2.268-.962 3.018M83.93 65.8l-2.25-4.501h-2.023V65.8h-1.621V55.121h4.142c2.023 0 3.313 1.305 3.313 3.12 0 1.529-.93 2.505-2.129 2.832L85.82 65.8zm-1.874-9.223h-2.399v3.342h2.399c1.08 0 1.814-.612 1.814-1.661 0-1.051-.734-1.681-1.814-1.681m12.073 8.171c-.734.736-1.681 1.141-2.818 1.141-1.141 0-2.068-.404-2.806-1.141-1.049-1.048-1.035-2.234-1.035-4.286 0-2.057-.014-3.239 1.035-4.289.737-.734 1.665-1.143 2.806-1.143 1.138 0 2.084.408 2.818 1.143 1.048 1.05 1.019 2.232 1.019 4.289-.001 2.052.029 3.238-1.019 4.286M92.9 57.147c-.378-.407-.962-.663-1.59-.663-.631 0-1.219.256-1.591.663-.523.568-.631 1.165-.631 3.314 0 2.146.107 2.74.631 3.314.372.403.96.659 1.591.659.628 0 1.212-.256 1.59-.659.523-.574.63-1.169.63-3.314 0-2.148-.106-2.745-.63-3.314m8.307 8.742c-2.174 0-3.825-1.48-3.825-3.687v-7.081h1.62v7.003c0 1.428.872 2.312 2.205 2.312 1.338 0 2.221-.884 2.221-2.312v-7.003h1.62v7.081c0 2.206-1.665 3.687-3.841 3.687m10.519-4.29h-2.431V65.8h-1.623V55.121h4.054c2.083 0 3.417 1.379 3.417 3.24 0 1.86-1.334 3.238-3.417 3.238m-.093-5.022h-2.338v3.554h2.338c1.124 0 1.89-.646 1.89-1.77s-.766-1.784-1.89-1.784"/><path fill="#FFF" d="M122.676 8.489a3.322 3.322 0 1 0-.002 6.644 3.322 3.322 0 0 0 .002-6.644m0 6.077a2.757 2.757 0 0 1-2.757-2.754 2.756 2.756 0 0 1 5.51 0 2.753 2.753 0 0 1-2.753 2.754"/><path fill="#FFF" d="M122.599 10.059c.98 0 1.476.302 1.476.893 0 .437-.328.743-.936.848.309.065.428.227.563.491l.65 1.25h-.644l-.564-1.138c-.155-.307-.366-.402-.763-.402h-.348v1.54h-.597V10.06h1.163zm-.565 1.559h.464c.615 0 .962-.235.962-.602 0-.406-.315-.582-.981-.582h-.444v1.184z"/></svg>